<!-- <svg width="27px" height="27px" viewBox="0 0 24 24" version="1.1" xmlns="http://www.w3.org/2000/svg" xmlns:xlink="http://www.w3.org/1999/xlink">
    <title>linkedin_fill</title>
    <g id="页面-1" stroke="none" stroke-width="1" fill="none" fill-rule="evenodd">
        <g id="Brand" transform="translate(-336.000000, -48.000000)">
            <g id="linkedin_fill" transform="translate(336.000000, 48.000000)">
            <path d="M24,0 L24,24 L0,24 L0,0 L24,0 Z M12.5934901,23.257841 L12.5819402,23.2595131 L12.5108777,23.2950439 L12.4918791,23.2987469 L12.4918791,23.2987469 L12.4767152,23.2950439 L12.4056548,23.2595131 C12.3958229,23.2563662 12.3870493,23.2590235 12.3821421,23.2649074 L12.3780323,23.275831 L12.360941,23.7031097 L12.3658947,23.7234994 L12.3769048,23.7357139 L12.4804777,23.8096931 L12.4953491,23.8136134 L12.4953491,23.8136134 L12.5071152,23.8096931 L12.6106902,23.7357139 L12.6232938,23.7196733 L12.6232938,23.7196733 L12.6266527,23.7031097 L12.609561,23.275831 C12.6075724,23.2657013 12.6010112,23.2592993 12.5934901,23.257841 L12.5934901,23.257841 Z M12.8583906,23.1452862 L12.8445485,23.1473072 L12.6598443,23.2396597 L12.6498822,23.2499052 L12.6498822,23.2499052 L12.6471943,23.2611114 L12.6650943,23.6906389 L12.6699349,23.7034178 L12.6699349,23.7034178 L12.678386,23.7104931 L12.8793402,23.8032389 C12.8914285,23.8068999 12.9022333,23.8029875 12.9078286,23.7952264 L12.9118235,23.7811639 L12.8776777,23.1665331 C12.8752882,23.1545897 12.8674102,23.1470016 12.8583906,23.1452862 L12.8583906,23.1452862 Z M12.1430473,23.1473072 C12.1332178,23.1423925 12.1221763,23.1452606 12.1156365,23.1525954 L12.1099173,23.1665331 L12.0757714,23.7811639 C12.0751323,23.7926639 12.0828099,23.8018602 12.0926481,23.8045676 L12.108256,23.8032389 L12.3092106,23.7104931 L12.3186497,23.7024347 L12.3186497,23.7024347 L12.3225043,23.6906389 L12.340401,23.2611114 L12.337245,23.2485176 L12.337245,23.2485176 L12.3277531,23.2396597 L12.1430473,23.1473072 Z" id="MingCute" fill-rule="nonzero">

</path>
                <path d="M18,3 C19.6569,3 21,4.34315 21,6 L21,18 C21,19.6569 19.6569,21 18,21 L6,21 C4.34315,21 3,19.6569 3,18 L3,6 C3,4.34315 4.34315,3 6,3 L18,3 Z M8,10 C7.44772,10 7,10.4477 7,11 L7,16 C7,16.5523 7.44772,17 8,17 C8.55228,17 9,16.5523 9,16 L9,11 C9,10.4477 8.55228,10 8,10 Z M11,9 C10.4477,9 10,9.44772 10,10 L10,16 C10,16.5523 10.4477,17 11,17 C11.5523,17 12,16.5523 12,16 L12,12.3398 C12.3049,11.9955 12.8207,11.5921 13.3933,11.3472 C13.7261,11.2048 14.2268,11.1479 14.5751,11.2574 C14.7274,11.3053 14.8143,11.3726 14.868,11.4451 C14.9201,11.5157 15,11.6707 15,12 L15,16 C15,16.5522 15.4477,17 16,17 C16.5523,17 17,16.5522 17,16 L17,12 C17,11.3292 16.8298,10.7342 16.4758,10.2556 C16.1232,9.77907 15.6476,9.4981 15.1749,9.34949 C14.2732,9.06594 13.2739,9.22295 12.6067,9.50837 C12.395,9.59892 12.1863,9.70435 11.9841,9.82128 C11.8998,9.35427 11.4913,9 11,9 Z M8,7 C7.44772,7 7,7.44772 7,8 C7,8.55228 7.44772,9 8,9 C8.55228,9 9,8.55228 9,8 C9,7.44772 8.55228,7 8,7 Z" id="形状" fill="#09244B">

</path>
            </g>
        </g>
    </g>
</svg> -->

<!-- 
<svg width="22px" height="22px" viewBox="0 0 24 24" fill="none" xmlns="http://www.w3.org/2000/svg">
<path d="M6.5 8C7.32843 8 8 7.32843 8 6.5C8 5.67157 7.32843 5 6.5 5C5.67157 5 5 5.67157 5 6.5C5 7.32843 5.67157 8 6.5 8Z" fill="#5F9EA0"/>
<path d="M5 10C5 9.44772 5.44772 9 6 9H7C7.55228 9 8 9.44771 8 10V18C8 18.5523 7.55228 19 7 19H6C5.44772 19 5 18.5523 5 18V10Z" fill="#5F9EA0"/>
<path d="M11 19H12C12.5523 19 13 18.5523 13 18V13.5C13 12 16 11 16 13V18.0004C16 18.5527 16.4477 19 17 19H18C18.5523 19 19 18.5523 19 18V12C19 10 17.5 9 15.5 9C13.5 9 13 10.5 13 10.5V10C13 9.44771 12.5523 9 12 9H11C10.4477 9 10 9.44772 10 10V18C10 18.5523 10.4477 19 11 19Z" fill="#5F9EA0"/>
<path fill-rule="evenodd" clip-rule="evenodd" d="M20 1C21.6569 1 23 2.34315 23 4V20C23 21.6569 21.6569 23 20 23H4C2.34315 23 1 21.6569 1 20V4C1 2.34315 2.34315 1 4 1H20ZM20 3C20.5523 3 21 3.44772 21 4V20C21 20.5523 20.5523 21 20 21H4C3.44772 21 3 20.5523 3 20V4C3 3.44772 3.44772 3 4 3H20Z" fill="#5F9EA0"/>
</svg> -->

<svg fill="#5F9EA0" width="20px" height="20px" viewBox="0 0 32 32" version="1.1" xmlns="http://www.w3.org/2000/svg">
<title>linkedin</title>
<path d="M28.778 1.004h-25.56c-0.008-0-0.017-0-0.027-0-1.199 0-2.172 0.964-2.186 2.159v25.672c0.014 1.196 0.987 2.161 2.186 2.161 0.010 0 0.019-0 0.029-0h25.555c0.008 0 0.018 0 0.028 0 1.2 0 2.175-0.963 2.194-2.159l0-0.002v-25.67c-0.019-1.197-0.994-2.161-2.195-2.161-0.010 0-0.019 0-0.029 0h0.001zM9.9 26.562h-4.454v-14.311h4.454zM7.674 10.293c-1.425 0-2.579-1.155-2.579-2.579s1.155-2.579 2.579-2.579c1.424 0 2.579 1.154 2.579 2.578v0c0 0.001 0 0.002 0 0.004 0 1.423-1.154 2.577-2.577 2.577-0.001 0-0.002 0-0.003 0h0zM26.556 26.562h-4.441v-6.959c0-1.66-0.034-3.795-2.314-3.795-2.316 0-2.669 1.806-2.669 3.673v7.082h-4.441v-14.311h4.266v1.951h0.058c0.828-1.395 2.326-2.315 4.039-2.315 0.061 0 0.121 0.001 0.181 0.003l-0.009-0c4.5 0 5.332 2.962 5.332 6.817v7.855z"></path>
</svg>